<svg xmlns="http://www.w3.org/2000/svg" width="109.43" height="80.943" viewBox="0 0 109.43 80.943"><defs><style>.a{fill:#00b2ff;}</style></defs><g transform="translate(-100.002 -204.144)"><g transform="translate(100.002 204.144)"><g transform="translate(0 0)"><path class="a" d="M606.744,237.722c-.29.42-.461.665-.631.91a47.212,47.212,0,0,1-6.756,8.06,7.191,7.191,0,0,1-8.173,1.289,6.093,6.093,0,0,1-1.279-.871,14.763,14.763,0,0,1-1.1-1.165c-.342.737-.695,1.439-1,2.163a1.078,1.078,0,0,1-1.3.722,5.022,5.022,0,0,1-3.406-2.038,2.884,2.884,0,0,1-.356-2.874,149.08,149.08,0,0,1,12.226-24.582c2.947-4.827,6.217-9.458,9.309-14.2a2.045,2.045,0,0,1,2.071-.981,5.11,5.11,0,0,1,3.543,1.793,1.087,1.087,0,0,1,.043,1.573A209.494,209.494,0,0,0,596.5,227.965c-.682,1.175-1.336,2.366-1.988,3.559a6.385,6.385,0,0,0-.326.866l.19.123c.241-.278.5-.542.718-.834a58.312,58.312,0,0,1,9.333-10.136,12.192,12.192,0,0,1,4.7-2.737,5.286,5.286,0,0,1,2.4-.034c1.916.453,2.6,1.97,2.111,4.283a36.407,36.407,0,0,1-4.06,9.9c-.758,1.387-1.59,2.733-2.357,4.046Zm-16.234,5.8c-.005,1.323.819,1.866,1.9,1.257a9.27,9.27,0,0,0,2.18-1.752A63.055,63.055,0,0,0,605.218,227.4a33.078,33.078,0,0,0,1.462-4.1.539.539,0,0,0-.859-.643,6.344,6.344,0,0,0-1.12.958,108.04,108.04,0,0,0-14.032,19.425A1.847,1.847,0,0,0,590.51,243.519Z" transform="translate(-516.514 -204.144)"/><path class="a" d="M445.042,323.425a43.576,43.576,0,0,1,8.242-12.089,12.147,12.147,0,0,1,4.26-3.145,5.971,5.971,0,0,1,4.619.213,3.212,3.212,0,0,0,1.182.243c1.981.015,4.2,1.841,4.231,3.745a12.537,12.537,0,0,1-.538,3.818,41.8,41.8,0,0,1-12.405,19.557,15.812,15.812,0,0,1-3.67,2.2,4.3,4.3,0,0,1-4.3-.54,7.3,7.3,0,0,1-3.692-4.6,9.683,9.683,0,0,1,.287-4.415c.215-.9.5-1.774.786-2.766Zm3.38,9.882c.2.413.308,1.005.637,1.185a1.473,1.473,0,0,0,1.245-.269,11.811,11.811,0,0,0,1.929-1.776,58.581,58.581,0,0,0,8.084-12.738,20.991,20.991,0,0,0,2.41-7.155c.036-.38-.089-1-.332-1.124a1.416,1.416,0,0,0-1.167.272,8.772,8.772,0,0,0-1.527,1.461,71.527,71.527,0,0,0-9.644,15.372A16.983,16.983,0,0,0,448.422,333.307Z" transform="translate(-395.928 -293.638)"/><g transform="translate(0 2.592)"><path class="a" d="M107.131,361.751c-3.309-.918-5.221-3.332-6.595-6.264-.955-2.039-.652-3.089,1.083-4.526a32.8,32.8,0,0,1,7.35-4.306,152.44,152.44,0,0,1,18.434-6.87,1.95,1.95,0,0,0,1.271-.971c2.288-4.291,4.618-8.559,6.893-12.857,2.726-5.15,5.41-10.322,8.116-15.482.239-.457.568-.871.763-1.343a2.125,2.125,0,0,1,2.458-1.3,5.488,5.488,0,0,1,4.143,2.317.945.945,0,0,1,.112,1.178c-3.137,4.738-5.711,9.8-8.378,14.8-1.729,3.243-3.417,6.51-5.12,9.767-.161.308-.3.628-.462.982,1.5-.323,9.358-1.907,10.79-2.083a29.172,29.172,0,0,1,4.016-.275c.443.007,1.063.083,1.079.68.018.618-.524.9-1.07,1.038-2.364.61-11.192,2.554-13.553,3.178a8.988,8.988,0,0,0-3.039,1,9.056,9.056,0,0,0-1.736,2.58,55.879,55.879,0,0,1-9.3,11.645,25.964,25.964,0,0,1-10.5,6.209c-1.4.393-2.855.554-4.284.822-.105.021-.208.059-.312.089Q108.21,361.749,107.131,361.751Zm17.932-17.494-.123-.141c-.142.052-.287.1-.425.156-2.238.971-4.5,1.893-6.707,2.93a48.182,48.182,0,0,0-9.966,5.8,10.257,10.257,0,0,0-2.189,2.418c-.709,1.111,0,2.1,1.326,2.056a12.752,12.752,0,0,0,5.563-1.621,30.324,30.324,0,0,0,8.107-6.484C122.175,347.719,123.6,345.965,125.063,344.257Z" transform="translate(-100.002 -296.22)"/><path class="a" d="M454.282,231.92a3.518,3.518,0,0,1-3.5-4.707,5.794,5.794,0,0,1,4.972-4.112,3.5,3.5,0,0,1,3.8,4.466A5.788,5.788,0,0,1,454.282,231.92Z" transform="translate(-402.633 -223.091)"/></g></g><g transform="translate(33.869 49.988)"><path class="a" d="M368.8,585.9l-2.7.261c-.067.691-.09,1.364-.205,2.022a8.255,8.255,0,0,1-3.762,5.532,13.006,13.006,0,0,1-8.5,2.22,6.6,6.6,0,0,1-5.8-4.038,2.208,2.208,0,0,1,.543-2.677,9.3,9.3,0,0,1,3.373-1.986,35.633,35.633,0,0,1,8.15-1.914c.7-.093,1.4-.17,2.25-.274-.4-.871-.711-1.7-1.141-2.472-.666-1.19-1.451-2.314-2.107-3.511a9.027,9.027,0,0,1-.839-2.156,4.373,4.373,0,0,1,1.566-4.543,10.465,10.465,0,0,1,10.991-2.055,4.442,4.442,0,0,1,1.141.639,1.73,1.73,0,0,1,.514,2.563,4.312,4.312,0,0,1-.959,1.161c-.763.606-1.583,1.142-2.4,1.673a3.88,3.88,0,0,1-.867.306c-.027-.045-.055-.089-.083-.134.123-.148.248-.294.368-.445a19.172,19.172,0,0,0,1.55-1.99c.828-1.384.4-2.183-1.2-2.391a6.338,6.338,0,0,0-5.913,2.986,3.755,3.755,0,0,0-.209,3.321c.428,1.075.993,2.1,1.5,3.142.539,1.122,1.085,2.239,1.607,3.369a.446.446,0,0,0,.477.326c.962-.016,1.926-.025,2.888.005.32.01.387-.176.5-.384,1.4-2.572,2.808-5.146,4.231-7.708a1.105,1.105,0,0,1,1.428-.642,3.3,3.3,0,0,1,1.755,1.041.593.593,0,0,1,.029.844c-1.159,1.759-2.3,3.532-3.432,5.3a4.313,4.313,0,0,0-.252.532l.1.081c.139-.163.291-.316.419-.488a31.457,31.457,0,0,1,4.808-5.526,11.118,11.118,0,0,1,2.271-1.481,2.6,2.6,0,0,1,1.517-.16c1.093.2,1.479,1.019,1.231,2.362a17.093,17.093,0,0,1-1.972,5.117,22.589,22.589,0,0,1-5,6.5,8.953,8.953,0,0,1-2.345,1.449,2.928,2.928,0,0,1-3.371-.806c-.116-.118-.226-.239-.417-.442-.529,1.175-1.044,2.283-1.532,3.4-.6,1.373-1.178,2.756-1.766,4.134a1.071,1.071,0,0,1-1.261.762,4.046,4.046,0,0,1-1.444-.531,1.252,1.252,0,0,1-.514-1.895q2.273-4.961,4.562-9.914C368.636,586.265,368.7,586.13,368.8,585.9Zm-6.764.906c-.851.194-1.622.35-2.383.547a24.687,24.687,0,0,0-6.991,2.681,6.466,6.466,0,0,0-1.691,1.484,1.276,1.276,0,0,0,1.005,2.189,10,10,0,0,0,8.355-3.145A6.591,6.591,0,0,0,362.035,586.809Zm17.79-8.315-.227-.146c-.368.343-.762.663-1.1,1.034a63.369,63.369,0,0,0-7.075,9.645c-.1.161-.149.506-.056.6a.72.72,0,0,0,.643.172,7.5,7.5,0,0,0,1.762-1.131,24.907,24.907,0,0,0,5.868-9.269A5.786,5.786,0,0,0,379.824,578.494Z" transform="translate(-347.601 -569.584)"/><path class="a" d="M564.423,626.376c-.108.164-.213.331-.324.494-1.156,1.7-2.3,3.409-3.476,5.1a8.581,8.581,0,0,1-.989,1.083,1.756,1.756,0,0,1-2.057.539,2.131,2.131,0,0,1-1.334-1.875,8.169,8.169,0,0,1,.434-3.339,22.113,22.113,0,0,1,6.16-9.884,3.841,3.841,0,0,1,3.693-1.166,5.277,5.277,0,0,1,1.55.8c.378.261.642.293.863-.115a.983.983,0,0,1,1.016-.5,2.78,2.78,0,0,1,1.886.856.7.7,0,0,1,.085,1.055,37.785,37.785,0,0,0-5.276,10.534,25.048,25.048,0,0,0-.7,3.708c-.1.658.04.77.711.771a34.409,34.409,0,0,1,8.228.926,12.252,12.252,0,0,1,3.924,1.559c1.723,1.144,1.695,2.448-.105,3.466a10.472,10.472,0,0,1-5.757,1.246,11.393,11.393,0,0,1-7.168-2.644,9.078,9.078,0,0,1-1.492-1.64,1.208,1.208,0,0,0-1.423-.591,39.544,39.544,0,0,0-9.657,3.05c-.83.4-1.621.9-2.409,1.38-.331.2-.521.156-.559-.213a3.443,3.443,0,0,1,.027-1.048,4.386,4.386,0,0,1,2.877-3.6,31.317,31.317,0,0,1,6.44-1.48c.937-.123,1.878-.211,2.819-.3.347-.031.536-.174.522-.535a16.117,16.117,0,0,1,1.565-7.455.5.5,0,0,0,.025-.137C564.487,626.407,564.454,626.392,564.423,626.376Zm1.944,10.194a12.3,12.3,0,0,0,.944,1.228,7.616,7.616,0,0,0,6.363,2.042,3.624,3.624,0,0,0,1.462-.486.854.854,0,0,0,0-1.573,4.716,4.716,0,0,0-1.045-.494,22.425,22.425,0,0,0-6.987-.884A3.791,3.791,0,0,0,566.366,636.569Zm-6.792-5.641a1.961,1.961,0,0,0,.346-.155c.138-.123.269-.253.4-.388,2.979-3.167,5.1-6.942,7.47-10.544a.589.589,0,0,0,.038-.5.47.47,0,0,0-.442-.12,3.177,3.177,0,0,0-1.116.631c-1.018,1.144-2.037,2.3-2.934,3.533a24.313,24.313,0,0,0-3.453,6.314C559.76,630.05,559.7,630.425,559.575,630.928Z" transform="translate(-522.5 -610.689)"/><path class="a" d="M717.579,623.845a4.984,4.984,0,0,0-2.347-1.77,3.843,3.843,0,0,0-4.4.974,6.15,6.15,0,0,0-1.477,2.918,4.5,4.5,0,0,0,.161,2.732,2.391,2.391,0,0,0,.417.651c.134.156.246.111.3-.092s.075-.4.127-.592a10.618,10.618,0,0,1,2.33-4.268,4.1,4.1,0,0,1,1.951-1.346,1.01,1.01,0,0,1,1.4.849,2.184,2.184,0,0,1,.023.454,5.58,5.58,0,0,1-.819,2.576,12.191,12.191,0,0,1-3.747,4.089,6.194,6.194,0,0,1-3.355,1.275,3.511,3.511,0,0,1-2.744-.93,3.469,3.469,0,0,1-.938-2.469,8.641,8.641,0,0,1,1.049-4.325c.205-.387.343-.435.754-.289a2.35,2.35,0,0,0,2.112-.2,9.741,9.741,0,0,0,2.528-2.312,7.356,7.356,0,0,0,1.231-2.138.786.786,0,0,0-.022-.61,3.1,3.1,0,0,0-1.691-1.725,8.884,8.884,0,0,0-1.31-.32h-.253a3.054,3.054,0,0,0-1.2.416,8.606,8.606,0,0,0-1.55,1.36,3.7,3.7,0,0,0-.323.349q-1.681,2.085-3.284,4.234a45,45,0,0,1-5.12,6.132,7.551,7.551,0,0,1-2.848,1.877c-1.248.394-1.981-.178-1.849-1.46a5.207,5.207,0,0,1,.279-1.278,24.893,24.893,0,0,1,4.872-7.748,14.54,14.54,0,0,1,1.837-1.65c.151-.122.454-.053.688-.073-.022.228.031.5-.077.678a13.741,13.741,0,0,1-3.243,3.718c-.793.625-.806.789.031,1.387.178.126.375.224.564.334a.961.961,0,0,0,1.163-.109,13.95,13.95,0,0,0,3.647-4.287,1.275,1.275,0,0,0,.094-1.249,4.554,4.554,0,0,0-.512-.922,4.153,4.153,0,0,0-6.276-.4,21.994,21.994,0,0,0-5.963,9.024,6.379,6.379,0,0,0-.375,3.725,3.566,3.566,0,0,0,5.213,2.173,15.463,15.463,0,0,0,4.037-3.42c.642-.713,1.244-1.46,1.817-2.137L702.4,624.8a8.15,8.15,0,0,0-.444,1.841.482.482,0,0,1-.044.113v1.115c.036.257.064.517.105.773a5.4,5.4,0,0,0,2.707,4.056,8.326,8.326,0,0,0,2.685.919,7.276,7.276,0,0,0,4.535-.6,12.031,12.031,0,0,0,3.975-3.031,8.655,8.655,0,0,0,2.078-3.74A2.857,2.857,0,0,0,717.579,623.845Zm-8.235-4.685a4.718,4.718,0,0,1,.725-.544.9.9,0,0,1,.357-.049.957.957,0,0,1,.023.379,5.519,5.519,0,0,1-.387.819,10.1,10.1,0,0,1-2.624,3.105,6.158,6.158,0,0,1-.713.406c-.25-.051-.341-.231-.207-.471.152-.271.327-.529.5-.787A17.207,17.207,0,0,1,709.345,619.16Z" transform="translate(-642.533 -610.497)"/></g></g></g></svg>