<?xml version="1.0" standalone="no"?>
<!DOCTYPE svg PUBLIC "-//W3C//DTD SVG 20010904//EN"
 "http://www.w3.org/TR/2001/REC-SVG-20010904/DTD/svg10.dtd">
<svg version="1.0" xmlns="http://www.w3.org/2000/svg"
 width="2000.000000pt" height="1500.000000pt" viewBox="0 0 2000.000000 1500.000000"
 preserveAspectRatio="xMidYMid meet">

<g transform="translate(0.000000,1500.000000) scale(0.100000,-0.100000)"
fill="#000000" stroke="none">
<path d="M6138 9321 c-13 -11 -30 -37 -36 -59 -18 -59 -16 -3473 2 -3521 7
-19 24 -44 39 -55 26 -19 27 -19 48 0 51 45 49 -42 49 1819 0 1863 2 1783 -48
1821 -23 18 -25 17 -54 -5z"/>
<path d="M4030 9324 c-14 -2 -52 -9 -85 -15 -197 -35 -395 -171 -513 -352
-296 -453 -64 -1056 465 -1209 65 -19 101 -23 218 -22 129 1 147 3 235 32 258
85 448 278 530 537 28 88 38 271 21 370 -42 241 -211 465 -433 573 -57 28
-132 58 -169 66 -67 16 -224 28 -269 20z"/>
<path d="M6640 9161 l0 -89 90 -17 90 -18 -2 -611 -3 -611 -85 -16 -85 -15 -3
-87 -3 -87 321 0 321 0 -3 87 -3 87 -85 15 -85 16 -3 248 -2 247 360 0 360 0
-2 -247 -3 -248 -85 -16 -85 -15 -3 -87 -3 -87 321 0 321 0 -3 87 -3 87 -85
15 -85 16 -3 611 -2 611 62 12 c35 6 75 14 91 17 l27 6 0 89 0 89 -320 0 -320
0 0 -89 0 -89 90 -17 90 -17 0 -254 0 -254 -360 0 -360 0 0 254 0 253 63 12
c34 6 74 14 90 17 l27 6 0 89 0 89 -320 0 -320 0 0 -89z"/>
<path d="M8430 9161 l0 -89 28 -6 c15 -3 55 -11 90 -17 l62 -12 -2 -611 -3
-611 -85 -15 -85 -15 -3 -88 -3 -87 321 0 320 0 0 84 c0 96 7 89 -103 107
l-77 13 0 612 0 611 63 12 c34 6 75 14 90 17 l28 6 -3 86 -3 87 -317 3 -318 2
0 -89z"/>
<path d="M9220 9161 l0 -90 38 -6 c20 -4 60 -12 87 -18 l50 -12 0 -610 0 -610
-85 -15 -85 -15 -3 -88 -3 -87 321 0 320 0 0 84 c0 96 7 89 -103 107 l-77 13
0 238 0 238 161 -2 160 -3 139 -335 139 -335 176 -3 176 -2 -3 87 -3 87 -64
16 -63 15 -114 254 c-63 140 -114 260 -114 265 0 6 18 19 39 29 149 68 243
225 244 406 0 194 -84 332 -250 412 -121 58 -156 61 -640 66 l-443 5 0 -91z
m835 -142 c68 -12 120 -37 152 -71 94 -101 81 -313 -24 -382 -66 -44 -139 -56
-330 -56 l-173 0 0 260 0 260 158 0 c87 0 185 -5 217 -11z"/>
<path d="M11429 9228 c-5 -13 -128 -338 -272 -723 l-263 -700 -39 -8 c-22 -5
-50 -11 -62 -13 -22 -4 -23 -9 -23 -89 l0 -85 260 0 261 0 -3 87 -3 88 -50 8
c-27 4 -51 10 -54 12 -2 2 16 61 40 130 l44 125 305 0 306 0 38 -117 c21 -65
41 -123 43 -129 3 -7 -14 -14 -43 -19 -76 -11 -74 -8 -74 -101 l0 -84 260 0
260 0 0 85 c0 94 3 90 -70 100 l-45 6 -254 687 c-140 378 -260 704 -269 725
l-14 37 -134 0 c-130 0 -135 -1 -145 -22z m257 -619 c60 -172 111 -316 112
-320 2 -5 -101 -9 -228 -9 -127 0 -230 4 -228 9 2 4 52 148 113 320 60 171
113 311 116 311 3 0 55 -140 115 -311z"/>
<path d="M12500 9161 l0 -89 90 -17 90 -18 -2 -611 -3 -611 -85 -16 -85 -15
-3 -87 -3 -87 321 0 320 0 0 85 c0 47 -1 85 -2 86 -2 0 -48 8 -103 17 l-100
18 -3 494 c-1 327 1 491 8 484 5 -5 180 -273 387 -594 l378 -585 138 -3 137
-3 0 714 0 715 90 17 91 18 -3 86 -3 86 -317 3 -318 2 0 -89 0 -89 68 -11 c37
-7 82 -14 100 -17 l32 -6 0 -497 -1 -496 -34 55 c-19 30 -189 300 -377 600
l-343 545 -233 3 -232 2 0 -89z"/>
<path d="M3273 7654 c-340 -74 -614 -334 -719 -679 -28 -89 -28 -93 -32 -432
-4 -384 -1 -410 65 -543 69 -136 206 -247 368 -297 57 -17 120 -18 1155 -18
l1095 0 80 28 c159 57 275 158 345 302 58 121 62 156 58 540 -4 336 -4 341
-31 428 -54 176 -135 306 -270 433 -128 121 -286 205 -449 238 -130 27 -158
23 -220 -30 -116 -99 -242 -166 -388 -205 -119 -32 -328 -32 -445 0 -139 37
-271 108 -386 206 -49 42 -56 45 -108 44 -31 -1 -84 -7 -118 -15z m1042 -589
c16 -15 25 -35 25 -56 0 -35 -240 -903 -265 -957 -37 -80 -165 -52 -165 36 0
14 59 235 131 491 109 391 134 470 155 489 35 30 87 30 119 -3z m-591 -213
c58 -53 41 -102 -73 -216 l-88 -88 84 -81 c47 -45 92 -94 100 -110 37 -73 -46
-153 -120 -116 -32 16 -256 239 -273 272 -27 50 -11 75 134 219 75 75 144 138
152 141 22 8 62 -2 84 -21z m859 15 c18 -8 88 -74 160 -150 171 -184 172 -166
-11 -349 -134 -134 -140 -138 -181 -138 -54 0 -91 36 -91 88 0 31 12 47 97
133 l97 99 -97 99 c-82 83 -97 103 -97 130 0 44 16 70 53 86 40 17 32 17 70 2z"/>
<path d="M7225 7436 c-285 -56 -478 -254 -557 -574 -32 -126 -32 -388 0 -514
69 -277 232 -471 460 -548 191 -63 424 -41 587 58 159 96 269 252 327 463 20
74 23 107 23 284 0 177 -3 210 -23 284 -77 280 -257 475 -497 536 -87 22 -237
27 -320 11z m302 -250 c115 -52 199 -169 240 -334 25 -99 25 -389 0 -495 -42
-177 -144 -307 -273 -347 -163 -50 -344 -2 -437 115 -45 57 -95 173 -113 264
-21 109 -15 394 11 486 37 129 97 223 182 282 71 49 129 63 238 60 73 -3 102
-8 152 -31z"/>
<path d="M8220 7336 l0 -84 50 -11 c27 -6 68 -14 90 -17 l40 -7 0 -612 0 -612
-40 -7 c-22 -3 -63 -11 -90 -17 l-50 -11 0 -84 0 -84 605 0 605 0 0 230 0 230
-109 0 -109 0 -8 -122 -9 -123 -255 0 -255 0 0 605 0 605 60 11 c33 7 77 15
98 18 l37 7 0 84 0 85 -330 0 -330 0 0 -84z"/>
<path d="M9570 7336 l0 -85 53 -10 c28 -6 69 -13 90 -17 l37 -6 0 -613 0 -612
-40 -7 c-22 -3 -63 -11 -90 -17 l-50 -11 0 -84 0 -84 320 0 320 0 0 84 c0 96
8 88 -102 107 l-68 11 0 613 0 613 68 11 c110 19 102 11 102 107 l0 84 -320 0
-320 0 0 -84z"/>
<path d="M10340 7336 l0 -85 48 -6 c101 -12 67 56 361 -737 l266 -718 140 3
140 2 255 715 c283 793 249 723 353 735 l47 6 0 85 0 84 -290 0 -290 0 0 -84
0 -84 33 -6 c17 -3 56 -8 85 -12 28 -4 52 -8 52 -10 0 -1 -66 -193 -146 -426
-81 -233 -166 -481 -189 -553 l-43 -130 -17 59 c-10 32 -93 281 -186 553 -93
272 -169 496 -169 498 0 1 21 6 48 9 111 16 102 7 102 102 l0 84 -300 0 -300
0 0 -84z"/>
<path d="M12080 7335 c0 -96 -12 -84 110 -108 l65 -12 0 -610 0 -610 -65 -12
c-122 -24 -110 -12 -110 -108 l0 -85 635 0 635 0 0 210 0 210 -109 0 -109 0
-8 -102 -9 -103 -287 -3 -288 -2 0 260 0 260 285 0 285 0 0 110 0 110 -285 0
-285 0 0 235 0 235 269 0 c248 0 270 -1 275 -17 2 -10 8 -57 12 -105 l6 -88
109 0 109 0 0 210 0 210 -620 0 -620 0 0 -85z"/>
<path d="M13550 7336 c0 -96 -8 -88 103 -107 l67 -11 0 -613 0 -613 -67 -11
c-111 -19 -103 -11 -103 -107 l0 -84 320 0 320 0 0 84 0 84 -50 11 c-27 6 -68
14 -90 17 l-40 7 0 612 0 612 40 7 c22 3 63 11 90 17 l50 11 0 84 0 84 -320 0
-320 0 0 -84z"/>
<path d="M14340 7336 c0 -96 -8 -88 103 -107 l67 -11 0 -613 0 -613 -67 -11
c-111 -19 -103 -11 -103 -107 l0 -84 320 0 320 0 0 84 0 85 -52 10 c-29 6 -70
13 -90 17 l-38 6 0 239 0 239 158 0 158 0 140 -337 140 -338 177 -3 177 -2 0
85 c0 60 -4 87 -12 90 -7 2 -38 9 -68 15 l-55 11 -116 262 -116 262 47 26
c163 90 240 221 240 409 0 198 -87 335 -263 415 -110 51 -157 55 -629 55
l-438 0 0 -84z m914 -160 c95 -48 142 -138 134 -258 -7 -96 -43 -152 -123
-193 l-59 -30 -203 -3 -203 -4 0 257 0 256 208 -3 c180 -3 212 -6 246 -22z"/>
<path d="M16534 7373 c-10 -27 -131 -349 -269 -718 -275 -734 -247 -676 -337
-690 l-38 -6 0 -84 0 -85 260 0 260 0 0 84 c0 93 4 88 -72 101 -21 3 -38 9
-38 13 0 4 18 62 41 130 l41 122 305 -2 306 -3 43 -126 42 -127 -59 -11 -59
-12 0 -85 0 -84 260 0 260 0 0 84 c0 91 -3 95 -70 96 -14 0 -31 4 -37 8 -7 4
-132 330 -277 723 l-264 714 -140 3 -140 3 -18 -48z m272 -591 l110 -317 -224
-3 c-124 -1 -226 -1 -228 1 -5 5 219 637 225 637 3 0 56 -143 117 -318z"/>
</g>
</svg>
