<?xml version="1.0" standalone="no"?>
<!DOCTYPE svg PUBLIC "-//W3C//DTD SVG 20010904//EN"
 "http://www.w3.org/TR/2001/REC-SVG-20010904/DTD/svg10.dtd">
<svg version="1.0" xmlns="http://www.w3.org/2000/svg"
 width="128.000000pt" height="128.000000pt" viewBox="0 0 128.000000 128.000000"
 preserveAspectRatio="xMidYMid meet">

<g transform="translate(0.000000,128.000000) scale(0.100000,-0.100000)"
fill="#001F3F" stroke="none">
<path d="M555 1136 c-143 -62 -187 -240 -87 -356 46 -54 101 -80 172 -80 155
0 263 144 218 291 -15 52 -73 117 -122 140 -48 22 -137 24 -181 5z"/>
<path d="M342 654 c-115 -57 -156 -143 -150 -317 3 -107 5 -116 32 -151 49
-65 58 -66 417 -66 358 0 366 1 417 68 25 33 27 44 30 149 6 174 -35 260 -150
317 -67 34 -99 33 -149 -3 -47 -35 -132 -55 -186 -45 -41 7 -128 47 -138 64
-11 18 -70 11 -123 -16z m357 -147 c8 -10 1 -49 -29 -153 -22 -76 -40 -140
-40 -141 0 -10 -39 -1 -43 10 -4 11 64 265 78 287 8 14 20 13 34 -3z m-159
-75 c0 -9 -12 -29 -27 -44 l-27 -28 27 -28 c31 -32 34 -47 12 -56 -16 -6 -79
43 -96 76 -9 16 -3 27 34 64 45 44 77 51 77 16z m289 -27 c17 -20 31 -39 31
-43 0 -13 -85 -92 -98 -92 -26 0 -24 31 3 60 l27 28 -27 36 c-22 29 -25 39
-15 51 15 19 37 8 79 -40z"/>
</g>
</svg>
