<?xml version="1.0" standalone="no"?>
<!DOCTYPE svg PUBLIC "-//W3C//DTD SVG 20010904//EN"
 "http://www.w3.org/TR/2001/REC-SVG-20010904/DTD/svg10.dtd">
<svg version="1.0" xmlns="http://www.w3.org/2000/svg"
 width="2000.000000pt" height="489.000000pt" viewBox="0 0 2000.000000 489.000000"
 preserveAspectRatio="xMidYMid meet">

<g transform="translate(0.000000,489.000000) scale(0.100000,-0.100000)"
fill="#000000" stroke="none">
<path d="M4848 4863 c-9 -10 -24 -34 -34 -53 -18 -34 -19 -108 -19 -2365 0
-2257 1 -2331 19 -2365 27 -51 46 -70 72 -70 38 0 54 11 77 54 l22 41 0 2340
0 2340 -22 41 c-12 23 -29 44 -38 48 -30 11 -62 6 -77 -11z"/>
<path d="M1979 4860 c-220 -40 -409 -134 -564 -281 -101 -96 -165 -183 -225
-304 -267 -538 -46 -1177 497 -1437 637 -305 1385 76 1518 775 19 101 19 270
0 380 -71 406 -390 745 -799 848 -90 23 -344 35 -427 19z"/>
<path d="M5520 4646 l0 -113 120 -23 120 -22 0 -814 c0 -448 -3 -814 -7 -815
-5 0 -57 -10 -118 -22 l-110 -22 0 -115 0 -115 425 0 425 0 0 115 0 115 -95
18 c-52 10 -105 20 -117 22 l-23 5 0 325 0 325 475 0 475 0 0 -324 c0 -250 -3
-325 -12 -329 -7 -2 -59 -12 -115 -22 l-103 -18 0 -119 0 -118 423 2 422 3 0
115 0 115 -95 18 c-52 10 -105 20 -117 22 l-23 5 0 814 0 814 120 22 120 22 0
114 0 114 -425 0 -425 0 0 -114 0 -113 115 -23 115 -23 0 -338 0 -339 -475 0
-475 0 0 339 0 339 120 22 120 22 0 114 0 114 -430 0 -430 0 0 -114z"/>
<path d="M7900 4651 c0 -61 4 -112 9 -115 5 -3 59 -16 120 -27 l111 -21 0
-814 c0 -448 -1 -814 -2 -815 -2 0 -55 -10 -118 -22 l-115 -22 0 -115 0 -115
425 0 425 0 0 115 0 115 -95 18 c-52 10 -105 20 -117 22 l-23 5 0 814 0 814
120 22 120 22 0 114 0 114 -430 0 -430 0 0 -109z"/>
<path d="M8960 4647 l0 -114 88 -17 c48 -9 99 -19 115 -22 l27 -6 0 -813 c0
-641 -3 -814 -12 -818 -7 -2 -59 -12 -115 -22 l-103 -18 0 -119 0 -118 425 0
425 0 0 119 0 118 -70 12 c-38 6 -92 16 -120 22 l-50 11 0 312 0 313 208 5
c147 4 210 2 218 -6 6 -6 88 -200 184 -431 95 -231 179 -432 187 -448 l14 -27
227 2 227 3 3 116 3 116 -83 17 c-45 9 -86 20 -90 24 -5 5 -78 163 -162 353
l-154 344 62 33 c210 111 326 305 326 547 0 298 -169 508 -480 597 -72 21 -96
22 -687 25 l-613 4 0 -114z m1204 -206 c71 -28 139 -92 169 -159 33 -73 36
-218 7 -296 -29 -75 -90 -137 -168 -168 -54 -21 -74 -23 -329 -26 l-273 -3 0
341 0 341 268 -3 c252 -3 270 -5 326 -27z"/>
<path d="M11901 4738 c-271 -729 -706 -1885 -712 -1892 -5 -6 -41 -15 -81 -21
l-73 -11 -3 -117 -3 -117 346 0 345 0 0 119 0 118 -75 12 c-41 7 -75 16 -75
19 0 4 26 81 58 172 l57 165 405 0 405 0 57 -165 c31 -91 57 -168 57 -172 1
-3 -33 -12 -74 -19 l-75 -12 0 -118 0 -119 345 0 345 0 0 119 0 119 -68 7
c-38 4 -74 10 -81 15 -8 4 -172 437 -366 961 l-353 954 -186 3 c-186 2 -186 2
-195 -20z m348 -833 l148 -420 -300 -3 c-165 -1 -302 0 -304 2 -3 2 59 186
138 408 164 467 160 456 166 443 2 -5 70 -199 152 -430z"/>
<path d="M13330 4646 l0 -114 120 -22 120 -22 0 -813 0 -813 -52 -12 c-29 -6
-83 -16 -120 -22 l-68 -12 0 -118 0 -118 425 0 425 0 0 118 0 118 -131 21
c-72 12 -133 23 -135 26 -2 2 -3 298 -2 657 l3 654 515 -797 514 -797 178 0
178 0 0 954 0 954 120 22 120 22 0 114 0 114 -430 0 -430 0 0 -109 c0 -61 4
-112 9 -115 5 -3 66 -15 137 -27 71 -11 130 -22 131 -23 2 -2 2 -299 1 -662
l-3 -659 -500 797 -500 797 -312 1 -313 0 0 -114z"/>
<path d="M1115 2659 c-152 -22 -353 -98 -485 -183 -302 -195 -498 -480 -577
-838 -16 -73 -18 -135 -18 -523 0 -494 0 -495 76 -652 96 -200 268 -345 489
-415 l75 -23 1475 0 1475 0 94 33 c215 75 367 209 462 407 74 153 74 156 74
655 0 480 -2 506 -56 671 -62 193 -165 357 -318 509 -152 151 -299 243 -497
309 -106 36 -281 66 -328 57 -21 -4 -59 -29 -102 -67 -163 -144 -343 -233
-564 -281 -114 -24 -326 -29 -440 -9 -212 37 -454 152 -595 281 -86 79 -113
87 -240 69z m1279 -774 c39 -19 66 -62 66 -106 0 -39 -332 -1230 -356 -1276
-35 -68 -126 -79 -182 -23 -35 35 -45 74 -31 126 75 284 345 1224 356 1240 16
24 68 53 96 54 11 0 33 -7 51 -15z m-789 -289 c60 -26 89 -97 65 -161 -6 -15
-63 -81 -127 -146 l-117 -120 122 -122 c101 -101 124 -129 129 -160 12 -78
-40 -137 -122 -137 l-48 0 -174 173 c-178 175 -203 206 -203 252 0 45 24 76
197 247 194 193 209 202 278 174z m1205 -15 c53 -39 349 -360 356 -385 3 -14
3 -38 -1 -53 -7 -31 -332 -365 -377 -389 -75 -39 -168 19 -168 106 0 48 13 65
138 192 l116 118 -39 42 c-22 24 -80 84 -128 134 -83 87 -87 94 -87 136 0 102
110 159 190 99z"/>
<path d="M6338 2360 c-287 -46 -513 -202 -657 -455 -57 -99 -116 -272 -136
-399 -21 -131 -21 -400 0 -521 64 -368 247 -635 528 -769 147 -70 203 -81 412
-81 211 1 257 10 410 85 287 139 473 424 524 803 16 113 13 356 -4 472 -66
440 -327 756 -697 845 -95 23 -294 34 -380 20z m298 -314 c294 -78 452 -433
414 -927 -22 -297 -115 -504 -271 -608 -89 -60 -171 -82 -299 -82 -205 -1
-350 81 -455 256 -152 255 -164 779 -24 1073 76 158 220 276 369 301 68 12
197 6 266 -13z"/>
<path d="M7630 2222 l0 -119 73 -12 c39 -7 93 -17 120 -23 l47 -10 0 -813 0
-813 -120 -22 -120 -23 0 -113 0 -114 805 0 805 0 0 305 0 305 -144 0 -143 0
-6 -67 c-4 -38 -9 -110 -13 -160 l-7 -93 -343 0 -344 0 0 804 0 804 23 5 c12
3 70 13 130 23 l107 17 0 118 0 119 -435 0 -435 0 0 -118z"/>
<path d="M9432 2223 l3 -118 65 -13 c36 -7 89 -17 118 -23 l52 -10 0 -814 0
-813 -120 -23 -120 -23 0 -113 0 -113 425 0 425 0 0 115 c0 63 -1 115 -3 115
-2 0 -52 9 -112 20 -60 11 -110 20 -112 20 -2 0 -3 366 -3 814 0 767 1 815 18
819 9 3 61 13 115 23 l97 18 0 118 0 118 -425 0 -426 0 3 -117z"/>
<path d="M10460 2222 l0 -119 86 -10 c47 -6 89 -15 94 -19 4 -5 167 -438 361
-962 l354 -952 185 2 185 3 340 952 c187 523 343 955 347 958 3 4 46 12 95 18
l88 12 3 118 3 117 -386 0 -385 0 0 -119 0 -118 110 -13 c61 -7 110 -16 110
-21 0 -5 -105 -314 -233 -686 -129 -373 -240 -699 -247 -726 -7 -26 -16 -47
-20 -47 -4 0 -15 28 -25 63 -9 34 -118 357 -241 717 -123 360 -225 662 -227
670 -1 11 21 18 93 30 l95 15 3 118 3 117 -396 0 -395 0 0 -118z"/>
<path d="M12770 2222 l0 -119 103 -18 c56 -10 108 -20 115 -22 9 -4 12 -177
12 -818 l0 -814 -52 -10 c-29 -6 -81 -15 -115 -22 l-63 -12 0 -113 0 -114 850
0 850 0 0 280 0 280 -149 0 -148 0 -7 -87 c-3 -49 -9 -112 -13 -141 l-6 -52
-381 2 -381 3 -3 348 -2 347 385 0 385 0 0 145 0 145 -385 0 -385 0 0 310 0
310 364 0 363 0 6 -57 c4 -32 10 -93 13 -135 l7 -78 148 0 149 0 0 280 0 280
-830 0 -830 0 0 -118z"/>
<path d="M14724 2327 c-2 -7 -3 -60 -2 -118 l3 -104 110 -22 c61 -12 113 -22
118 -22 4 -1 7 -368 7 -816 l0 -814 -37 -7 c-21 -3 -74 -14 -118 -23 l-80 -16
-3 -113 -3 -112 431 0 430 0 0 114 0 113 -120 23 -120 22 0 813 0 814 53 10
c28 6 81 17 117 24 l65 13 0 114 0 115 -423 3 c-344 2 -423 0 -428 -11z"/>
<path d="M15780 2222 l0 -118 98 -18 c53 -10 105 -20 115 -23 16 -4 17 -52 17
-818 l0 -814 -52 -10 c-29 -6 -81 -15 -115 -22 l-63 -12 0 -113 0 -114 425 0
425 0 0 114 0 113 -120 23 -120 22 0 312 0 313 92 7 c50 3 146 6 212 6 l122 0
188 -455 189 -455 233 0 234 0 0 115 c0 111 -1 115 -22 119 -13 3 -52 11 -88
19 l-65 13 -122 275 c-68 151 -139 309 -158 352 l-34 77 34 14 c19 8 60 33 93
54 205 140 298 382 247 646 -22 118 -66 198 -154 287 -115 116 -260 177 -471
199 -52 5 -330 10 -617 10 l-523 0 0 -118z m1069 -182 c214 -23 320 -126 329
-320 6 -114 -13 -181 -69 -244 -86 -98 -161 -116 -481 -116 l-238 0 0 338 c0
186 3 342 7 345 10 11 346 8 452 -3z"/>
<path d="M18374 1383 c-197 -527 -361 -962 -365 -966 -4 -5 -41 -13 -83 -19
l-76 -11 0 -114 0 -113 345 0 345 0 0 114 0 115 -75 12 c-41 6 -75 15 -75 18
0 3 26 81 57 173 l58 168 405 0 405 0 58 -168 c31 -92 57 -170 57 -173 0 -3
-34 -12 -75 -18 l-75 -12 0 -115 0 -114 345 0 345 0 0 114 0 114 -52 7 c-89
10 -106 16 -113 33 -9 24 -686 1851 -697 1885 l-10 27 -183 0 -183 0 -358
-957z m700 82 l143 -410 -300 -3 c-165 -1 -302 0 -305 2 -4 5 282 829 296 850
8 13 3 26 166 -439z"/>
</g>
</svg>
