<?xml version="1.0" encoding="UTF-8"?>
<!DOCTYPE svg PUBLIC "-//W3C//DTD SVG 1.1//EN" "http://www.w3.org/Graphics/SVG/1.1/DTD/svg11.dtd">
<svg xmlns="http://www.w3.org/2000/svg" version="1.1" width="128px" height="128px" style="shape-rendering:geometricPrecision; text-rendering:geometricPrecision; image-rendering:optimizeQuality; fill-rule:evenodd; clip-rule:evenodd" xmlns:xlink="http://www.w3.org/1999/xlink">
<g><path style="opacity:0.962" fill="#000000" d="M 56.5,12.5 C 79.6557,11.1506 89.1557,21.8173 85,44.5C 76.1699,58.6666 64.3366,61.8332 49.5,54C 40.7012,46.5973 38.2012,37.4306 42,26.5C 44.774,19.5569 49.6073,14.8903 56.5,12.5 Z"/></g>
<g><path style="opacity:0.962" fill="#000000" d="M 41.5,58.5 C 46.6186,61.2232 51.952,63.7232 57.5,66C 61.5,66.6667 65.5,66.6667 69.5,66C 74.6787,64.1607 79.512,61.6607 84,58.5C 96.179,60.2435 104.179,66.9102 108,78.5C 108.667,87.1667 108.667,95.8333 108,104.5C 106.594,109.573 103.428,113.073 98.5,115C 75.1667,115.667 51.8333,115.667 28.5,115C 23.5723,113.073 20.4056,109.573 19,104.5C 18.0799,94.7583 18.4133,85.0916 20,75.5C 24.6949,66.6314 31.8616,60.9647 41.5,58.5 Z M 66.5,76.5 C 67.5,76.5 68.5,76.5 69.5,76.5C 68.1901,84.269 66.3568,91.9357 64,99.5C 63.484,102.251 62.3173,104.584 60.5,106.5C 59.1195,106 58.4528,105 58.5,103.5C 60.7742,94.3478 63.4409,85.3478 66.5,76.5 Z M 49.5,82.5 C 51.3464,82.2222 52.6798,82.8888 53.5,84.5C 51.684,86.8169 49.684,88.9835 47.5,91C 49.8745,93.039 51.8745,95.3723 53.5,98C 52.8921,98.8699 52.0588,99.3699 51,99.5C 47.5,97.3333 44.6667,94.5 42.5,91C 44.6541,88.0132 46.9875,85.1798 49.5,82.5 Z M 74.5,82.5 C 78.8513,84.009 82.1846,86.8424 84.5,91C 82.1846,95.1576 78.8513,97.991 74.5,99.5C 74.6216,95.8527 76.2882,93.0194 79.5,91C 76.2882,88.9806 74.6216,86.1473 74.5,82.5 Z"/></g>
</svg>
