<?xml version="1.0" standalone="no"?>
<!DOCTYPE svg PUBLIC "-//W3C//DTD SVG 20010904//EN"
 "http://www.w3.org/TR/2001/REC-SVG-20010904/DTD/svg10.dtd">
<svg version="1.0" xmlns="http://www.w3.org/2000/svg"
 width="2000.000000pt" height="489.000000pt" viewBox="0 0 2000.000000 489.000000"
 preserveAspectRatio="xMidYMid meet">

<g transform="translate(0.000000,489.000000) scale(0.100000,-0.100000)"
fill="#FFF" stroke="none">
<path d="M4847 4862 c-9 -10 -24 -36 -34 -57 -17 -38 -18 -155 -21 -2330 -1
-1601 1 -2306 8 -2342 27 -128 107 -164 160 -71 l25 43 0 2340 c0 2198 -1
2342 -17 2372 -10 17 -25 38 -33 47 -22 21 -68 20 -88 -2z"/>
<path d="M1930 4849 c-429 -93 -755 -426 -836 -856 -25 -133 -15 -357 20 -478
91 -308 299 -550 588 -684 519 -242 1137 -27 1401 487 90 174 123 335 114 541
-21 466 -345 859 -807 981 -126 33 -351 37 -480 9z"/>
<path d="M5520 4647 l0 -113 98 -18 c53 -10 107 -20 120 -23 l22 -5 0 -814 c0
-448 -1 -814 -2 -815 -2 0 -55 -10 -118 -22 l-115 -22 0 -115 0 -115 425 0
425 0 0 115 0 115 -115 22 c-63 12 -116 22 -117 22 -2 1 -3 147 -3 326 l0 325
475 0 475 0 0 -324 c0 -255 -3 -325 -13 -329 -7 -3 -59 -13 -115 -23 l-102
-17 0 -119 0 -118 423 2 422 3 0 115 0 115 -115 22 c-63 12 -116 22 -117 22
-2 1 -3 367 -3 815 l0 814 120 22 120 23 0 113 0 114 -425 0 -425 0 0 -114 0
-113 88 -17 c48 -9 99 -19 115 -22 l27 -6 0 -339 0 -339 -475 0 -475 0 0 339
0 339 120 22 120 23 0 113 0 114 -430 0 -430 0 0 -113z"/>
<path d="M7910 4646 l0 -113 88 -17 c48 -9 99 -19 115 -22 l27 -6 0 -813 c0
-653 -3 -814 -13 -818 -7 -3 -59 -13 -115 -23 l-102 -17 0 -119 0 -118 423 2
422 3 0 115 0 115 -115 22 c-63 12 -116 22 -117 22 -2 1 -3 367 -3 815 l0 814
120 22 120 23 0 113 0 114 -425 0 -425 0 0 -114z"/>
<path d="M8960 4646 l0 -114 98 -18 c53 -9 107 -21 120 -25 l22 -9 0 -809 0
-809 -52 -12 c-29 -6 -83 -16 -120 -22 l-68 -12 0 -118 0 -118 425 0 426 0 -3
117 -3 118 -110 22 c-60 12 -113 22 -117 22 -5 1 -8 142 -8 314 l0 314 212 7
c117 3 214 3 216 -1 1 -5 87 -210 190 -458 l187 -450 230 0 230 0 3 113 c3
129 11 119 -108 141 l-65 12 -157 352 -156 352 67 35 c92 48 216 173 258 261
60 125 77 280 47 427 -46 226 -207 382 -469 454 -78 22 -96 23 -687 26 l-608
3 0 -115z m1204 -205 c80 -32 146 -99 175 -177 20 -50 22 -74 19 -159 -3 -88
-7 -107 -33 -154 -75 -137 -211 -176 -590 -169 l-160 3 -3 343 -2 343 267 -3
c254 -3 271 -5 327 -27z"/>
<path d="M11901 4738 c-361 -972 -705 -1885 -712 -1893 -6 -5 -42 -14 -82 -20
l-72 -10 -3 -117 -3 -118 346 0 345 0 0 119 0 118 -75 12 c-41 7 -75 16 -75
19 0 4 26 81 58 172 l57 165 405 3 405 2 58 -167 c31 -93 57 -171 57 -175 0
-4 -34 -12 -75 -19 l-75 -13 0 -118 0 -118 345 0 346 0 -3 118 -3 117 -74 10
c-46 6 -77 16 -83 25 -4 8 -165 440 -357 960 l-349 945 -186 3 c-186 2 -186 2
-195 -20z m347 -828 c83 -234 148 -428 145 -432 -2 -5 -139 -8 -304 -8 -227 0
-299 3 -299 12 0 7 63 191 140 410 164 464 159 452 165 446 2 -2 71 -195 153
-428z"/>
<path d="M13330 4646 l0 -113 120 -23 120 -22 0 -814 c0 -448 -3 -814 -7 -815
-5 0 -57 -10 -118 -22 l-110 -22 -3 -118 -3 -117 426 0 425 0 0 118 0 119
-124 18 c-68 10 -129 21 -135 24 -8 5 -10 193 -9 661 l3 654 515 -797 515
-797 177 0 178 0 0 954 0 954 120 22 120 23 0 113 0 114 -430 0 -431 0 3 -112
3 -113 65 -11 c36 -7 98 -17 138 -24 l72 -12 0 -661 c-1 -580 -2 -660 -15
-643 -8 11 -234 369 -502 797 l-488 778 -312 1 -313 0 0 -114z"/>
<path d="M1090 2653 c-446 -78 -827 -400 -985 -833 -62 -172 -67 -219 -72
-649 -3 -270 -1 -419 7 -474 45 -309 256 -554 560 -649 l75 -23 1470 0 1470 0
75 23 c272 86 465 280 542 548 22 77 23 89 23 524 0 393 -2 455 -18 530 -55
255 -167 462 -351 646 -149 149 -314 251 -505 314 -106 34 -279 64 -324 56
-19 -4 -60 -30 -102 -67 -460 -399 -1105 -409 -1582 -24 -128 104 -131 105
-283 78z m1306 -769 c40 -19 64 -59 64 -106 0 -36 -334 -1236 -356 -1279 -18
-36 -77 -63 -120 -55 -41 8 -90 55 -99 95 -5 22 40 195 170 658 97 345 183
638 192 651 15 25 65 51 96 52 11 0 34 -7 53 -16z m-791 -288 c65 -27 96 -120
59 -176 -9 -14 -67 -76 -128 -138 l-111 -112 123 -123 c101 -101 124 -129 129
-160 12 -78 -40 -137 -122 -137 l-48 0 -174 173 c-178 175 -203 206 -203 252
0 45 24 76 197 247 194 193 209 202 278 174z m1178 0 c33 -13 349 -333 373
-378 17 -30 17 -63 0 -96 -8 -15 -93 -105 -189 -200 -157 -157 -178 -174 -215
-179 -76 -10 -132 44 -132 128 0 39 7 48 127 170 l127 129 -50 53 c-220 231
-204 211 -204 259 0 50 18 81 64 109 37 23 56 24 99 5z"/>
<path d="M6344 2360 c-363 -51 -639 -297 -757 -675 -42 -134 -57 -252 -57
-440 0 -194 16 -313 61 -447 118 -359 363 -588 697 -654 86 -16 283 -19 368
-3 146 26 298 94 408 185 184 151 315 410 355 698 15 110 13 354 -4 466 -68
453 -332 767 -716 855 -86 19 -270 27 -355 15z m236 -300 c156 -25 289 -126
369 -280 84 -161 123 -413 102 -664 -31 -372 -163 -592 -400 -667 -88 -28
-241 -30 -326 -5 -172 51 -299 187 -364 391 -43 134 -55 229 -54 425 0 194 21
325 70 446 107 268 327 397 603 354z"/>
<path d="M7630 2221 l0 -118 70 -12 c38 -6 92 -16 120 -22 l50 -11 0 -813 0
-813 -120 -23 -120 -23 0 -113 0 -113 805 0 805 0 0 305 0 305 -144 0 -144 0
-7 -97 c-4 -54 -10 -127 -14 -163 l-6 -65 -340 0 -340 0 -3 806 -2 807 22 5
c13 3 71 14 131 23 l107 18 0 118 0 118 -435 0 -435 0 0 -119z"/>
<path d="M9434 2327 c-2 -7 -3 -60 -2 -118 l3 -104 110 -22 c61 -12 113 -22
118 -22 4 -1 7 -367 7 -815 l0 -814 -22 -5 c-13 -3 -67 -13 -120 -23 l-98 -18
0 -113 0 -113 425 0 425 0 0 114 0 113 -62 12 c-35 7 -87 16 -115 22 l-53 10
0 814 c0 641 3 814 13 818 6 2 58 12 115 22 l102 18 0 119 0 118 -420 0 c-339
0 -422 -3 -426 -13z"/>
<path d="M10460 2221 l0 -118 71 -7 c39 -4 81 -11 93 -16 17 -6 85 -180 376
-964 l355 -956 184 2 185 3 340 952 c188 524 344 955 348 958 3 4 46 12 95 18
l88 12 3 118 3 117 -386 0 -385 0 0 -118 0 -118 110 -14 c61 -7 110 -17 110
-22 0 -6 -100 -299 -222 -652 -122 -352 -232 -677 -246 -721 -13 -44 -27 -83
-31 -88 -4 -4 -13 16 -20 45 -8 29 -117 354 -242 721 -126 367 -230 675 -231
684 -3 14 13 20 92 33 l95 15 3 118 3 117 -396 0 -395 0 0 -119z"/>
<path d="M12770 2221 l0 -118 70 -12 c38 -6 92 -16 120 -22 l50 -11 0 -809 0
-809 -22 -9 c-13 -5 -67 -16 -120 -26 l-98 -17 0 -114 0 -114 845 0 845 0 0
280 0 280 -144 0 -143 0 -7 -92 c-4 -51 -9 -114 -13 -140 l-6 -48 -383 0 -384
0 0 350 0 350 385 0 385 0 0 145 0 145 -385 0 -385 0 0 310 0 310 364 0 363 0
6 -47 c4 -27 9 -87 13 -135 l7 -88 148 0 149 0 0 280 0 280 -830 0 -830 0 0
-119z"/>
<path d="M14730 2222 l0 -119 103 -18 c56 -10 108 -20 115 -22 9 -4 12 -177
12 -818 l0 -814 -52 -10 c-29 -6 -81 -15 -115 -22 l-63 -12 0 -113 0 -114 425
0 426 0 -3 112 -3 113 -80 16 c-44 9 -97 20 -117 23 l-38 7 0 814 c0 448 3
815 8 816 4 0 57 10 117 22 l110 22 0 115 0 115 -422 3 -423 2 0 -118z"/>
<path d="M15780 2222 l0 -119 103 -18 c56 -10 108 -20 115 -22 9 -4 12 -177
12 -818 l0 -814 -52 -10 c-29 -6 -81 -15 -115 -22 l-63 -12 0 -113 0 -114 425
0 425 0 0 114 0 114 -97 17 c-54 9 -108 19 -120 22 l-23 5 0 313 0 312 46 7
c26 3 122 6 213 6 l167 0 189 -455 188 -455 234 0 233 0 0 114 0 115 -57 11
c-129 26 -102 -9 -255 331 -75 167 -146 325 -157 351 l-20 48 72 37 c138 73
243 199 290 348 17 55 21 95 22 185 0 198 -42 310 -164 431 -118 117 -264 178
-477 199 -54 5 -332 10 -616 10 l-518 0 0 -118z m1088 -182 c140 -18 238 -83
285 -189 29 -65 35 -198 12 -277 -22 -78 -94 -151 -180 -185 -57 -22 -75 -23
-327 -27 l-268 -4 0 346 0 346 203 0 c111 0 235 -5 275 -10z"/>
<path d="M18375 1383 c-197 -527 -361 -962 -365 -966 -4 -5 -42 -13 -84 -19
l-76 -11 0 -114 0 -113 345 0 345 0 0 114 0 115 -75 12 c-41 6 -75 15 -75 18
0 3 26 81 57 173 l58 168 407 0 406 0 56 -168 c31 -92 56 -170 56 -173 0 -4
-34 -12 -75 -18 l-75 -12 0 -115 0 -114 345 0 345 0 0 113 0 114 -76 11 c-42
6 -80 16 -84 23 -5 6 -167 441 -361 965 l-352 954 -182 0 -183 0 -357 -957z
m589 395 c26 -73 93 -266 150 -428 l103 -295 -300 -3 c-165 -1 -302 0 -305 2
-6 7 291 856 299 856 4 0 28 -60 53 -132z"/>
</g>
</svg>
