<?xml version="1.0" standalone="no"?>
<!DOCTYPE svg PUBLIC "-//W3C//DTD SVG 20010904//EN"
 "http://www.w3.org/TR/2001/REC-SVG-20010904/DTD/svg10.dtd">
<svg version="1.0" xmlns="http://www.w3.org/2000/svg"
 width="2000.000000pt" height="1500.000000pt" viewBox="0 0 2000.000000 1500.000000"
 preserveAspectRatio="xMidYMid meet">

<g transform="translate(0.000000,1500.000000) scale(0.100000,-0.100000)"
fill="#000000" stroke="none">
<path d="M0 7500 l0 -7500 10000 0 10000 0 0 7500 0 7500 -10000 0 -10000 0 0
-7500z m6192 1826 c50 -38 48 42 48 -1821 0 -1861 2 -1774 -49 -1819 -21 -19
-22 -19 -48 0 -15 11 -32 36 -39 55 -18 48 -20 3462 -2 3521 6 22 23 48 36 59
29 22 31 23 54 5z m-1893 -22 c37 -8 112 -38 169 -66 222 -108 391 -332 433
-573 17 -99 7 -282 -21 -370 -82 -259 -272 -452 -530 -537 -88 -29 -106 -31
-235 -32 -117 -1 -153 3 -218 22 -529 153 -761 756 -465 1209 118 181 316 317
513 352 33 6 71 13 85 15 45 8 202 -4 269 -20z m2981 -143 l0 -89 -27 -6 c-16
-3 -56 -11 -90 -17 l-63 -12 0 -253 0 -254 360 0 360 0 0 254 0 254 -90 17
-90 17 0 89 0 89 320 0 320 0 0 -89 0 -89 -27 -6 c-16 -3 -56 -11 -91 -17
l-62 -12 2 -611 3 -611 85 -16 85 -15 3 -87 3 -87 -321 0 -321 0 3 87 3 87 85
15 85 16 3 248 2 247 -360 0 -360 0 2 -247 3 -248 85 -16 85 -15 3 -87 3 -87
-321 0 -321 0 3 87 3 87 85 15 85 16 3 611 2 611 -90 18 -90 17 0 89 0 89 320
0 320 0 0 -89z m1788 -3 l3 -86 -28 -6 c-15 -3 -56 -11 -90 -17 l-63 -12 0
-611 0 -612 77 -13 c110 -18 103 -11 103 -107 l0 -84 -320 0 -321 0 3 87 3 88
85 15 85 15 3 611 2 611 -62 12 c-35 6 -75 14 -90 17 l-28 6 0 89 0 89 318 -2
317 -3 3 -87z m1104 69 c248 -58 382 -219 381 -458 -1 -181 -95 -338 -244
-406 -21 -10 -39 -23 -39 -29 0 -5 51 -125 114 -265 l114 -254 63 -15 64 -16
3 -87 3 -87 -176 2 -176 3 -139 335 -139 335 -160 3 -161 2 0 -238 0 -238 77
-13 c110 -18 103 -11 103 -107 l0 -84 -320 0 -321 0 3 87 3 88 85 15 85 15 0
610 0 610 -50 12 c-27 6 -67 14 -87 18 l-38 6 0 90 0 91 443 -5 c356 -3 455
-7 509 -20z m1550 -14 c9 -21 129 -347 269 -725 l254 -687 45 -6 c73 -10 70
-6 70 -100 l0 -85 -260 0 -260 0 0 84 c0 93 -2 90 74 101 29 5 46 12 43 19 -2
6 -22 64 -43 129 l-38 117 -306 0 -305 0 -44 -125 c-24 -69 -42 -128 -40 -130
3 -2 27 -8 54 -12 l50 -8 3 -88 3 -87 -261 0 -260 0 0 85 c0 80 1 85 23 89 12
2 40 8 62 13 l39 8 263 700 c144 385 267 710 272 723 10 21 15 22 145 22 l134
0 14 -37z m1586 -513 c188 -300 358 -570 377 -600 l34 -55 1 496 0 497 -32 6
c-18 3 -63 10 -100 17 l-68 11 0 89 0 89 318 -2 317 -3 3 -86 3 -86 -91 -18
-90 -17 0 -715 0 -714 -137 3 -138 3 -378 585 c-207 321 -382 589 -387 594 -7
7 -9 -157 -8 -484 l3 -494 100 -18 c55 -9 101 -17 103 -17 1 -1 2 -39 2 -86
l0 -85 -320 0 -321 0 3 87 3 87 85 15 85 16 3 611 2 611 -90 18 -90 17 0 89 0
89 232 -2 233 -3 343 -545z m-9809 -1075 c115 -98 247 -169 386 -206 117 -32
326 -32 445 0 146 39 272 106 388 205 62 53 90 57 220 30 163 -33 321 -117
449 -238 135 -127 216 -257 270 -433 27 -87 27 -92 31 -428 4 -384 0 -419 -58
-540 -70 -144 -186 -245 -345 -302 l-80 -28 -1095 0 c-1035 0 -1098 1 -1155
18 -162 50 -299 161 -368 297 -66 133 -69 159 -65 543 4 339 4 343 32 432 90
297 300 528 579 636 97 37 184 57 258 58 52 1 59 -2 108 -44z m4046 -200 c240
-61 420 -256 497 -536 20 -74 23 -107 23 -284 0 -177 -3 -210 -23 -284 -58
-211 -168 -367 -327 -463 -203 -122 -494 -125 -705 -5 -116 66 -235 205 -294
345 -54 128 -70 221 -70 407 0 141 4 185 22 257 95 383 365 600 722 583 52 -3
122 -12 155 -20z m1335 -90 l0 -84 -37 -7 c-21 -3 -65 -11 -98 -18 l-60 -11 0
-605 0 -605 255 0 255 0 9 123 8 122 109 0 109 0 0 -230 0 -230 -605 0 -605 0
0 84 0 84 50 11 c27 6 68 14 90 17 l40 7 0 612 0 612 -40 7 c-22 3 -63 11 -90
17 l-50 11 0 84 0 84 330 0 330 0 0 -85z m1330 1 c0 -96 8 -88 -102 -107 l-68
-11 0 -613 0 -613 68 -11 c110 -19 102 -11 102 -107 l0 -84 -320 0 -320 0 0
84 0 84 50 11 c27 6 68 14 90 17 l40 7 0 612 0 613 -37 6 c-21 4 -62 11 -90
17 l-53 10 0 85 0 84 320 0 320 0 0 -84z m730 0 c0 -95 9 -86 -102 -102 -27
-3 -48 -8 -48 -9 0 -2 76 -226 169 -498 93 -272 176 -521 186 -553 l17 -59 43
130 c23 72 108 320 189 553 80 233 146 425 146 426 0 2 -24 6 -52 10 -29 4
-68 9 -85 12 l-33 6 0 84 0 84 290 0 290 0 0 -84 0 -85 -47 -6 c-104 -12 -70
58 -353 -735 l-255 -715 -140 -2 -140 -3 -266 718 c-294 793 -260 725 -361
737 l-48 6 0 85 0 84 300 0 300 0 0 -84z m2380 -126 l0 -210 -109 0 -109 0 -6
88 c-4 48 -10 95 -12 105 -5 16 -27 17 -275 17 l-269 0 0 -235 0 -235 285 0
285 0 0 -110 0 -110 -285 0 -285 0 0 -260 0 -260 288 2 287 3 9 103 8 102 109
0 109 0 0 -210 0 -210 -635 0 -635 0 0 85 c0 96 -12 84 110 108 l65 12 0 610
0 610 -65 12 c-122 24 -110 12 -110 108 l0 85 620 0 620 0 0 -210z m870 126
l0 -84 -50 -11 c-27 -6 -68 -14 -90 -17 l-40 -7 0 -612 0 -612 40 -7 c22 -3
63 -11 90 -17 l50 -11 0 -84 0 -84 -320 0 -320 0 0 84 c0 96 -8 88 103 107
l67 11 0 613 0 613 -67 11 c-111 19 -103 11 -103 107 l0 84 320 0 320 0 0 -84z
m1093 69 c249 -52 387 -215 387 -455 0 -188 -77 -319 -240 -409 l-47 -26 116
-262 116 -262 55 -11 c30 -6 61 -13 68 -15 8 -3 12 -30 12 -90 l0 -85 -177 2
-177 3 -140 338 -140 337 -158 0 -158 0 0 -239 0 -239 38 -6 c20 -4 61 -11 90
-17 l52 -10 0 -85 0 -84 -320 0 -320 0 0 84 c0 96 -8 88 103 107 l67 11 0 613
0 613 -67 11 c-111 19 -103 11 -103 107 l0 84 438 0 c343 0 452 -3 505 -15z
m1813 -704 c145 -393 270 -719 277 -723 6 -4 23 -8 37 -8 67 -1 70 -5 70 -96
l0 -84 -260 0 -260 0 0 84 0 85 59 12 59 11 -42 127 -43 126 -306 3 -305 2
-41 -122 c-23 -68 -41 -126 -41 -130 0 -4 17 -10 38 -13 76 -13 72 -8 72 -101
l0 -84 -260 0 -260 0 0 85 0 84 38 6 c90 14 62 -44 337 690 138 369 259 691
269 718 l18 48 140 -3 140 -3 264 -714z"/>
<path d="M9680 8770 l0 -260 173 0 c191 0 264 12 330 56 105 69 118 281 24
382 -58 62 -147 82 -369 82 l-158 0 0 -260z"/>
<path d="M11455 8609 c-61 -172 -111 -316 -113 -320 -2 -5 101 -9 228 -9 127
0 230 4 228 9 -1 4 -52 148 -112 320 -60 171 -112 311 -115 311 -3 0 -56 -140
-116 -311z"/>
<path d="M4196 7068 c-21 -19 -46 -98 -155 -489 -72 -256 -131 -477 -131 -491
0 -88 128 -116 165 -36 25 54 265 922 265 957 0 71 -89 107 -144 59z"/>
<path d="M3640 6873 c-8 -3 -77 -66 -152 -141 -145 -144 -161 -169 -134 -219
17 -33 241 -256 273 -272 50 -25 114 5 128 62 10 37 -14 74 -108 164 l-84 81
88 88 c93 92 116 134 100 175 -17 45 -73 76 -111 62z"/>
<path d="M4513 6865 c-37 -16 -53 -42 -53 -86 0 -27 15 -47 97 -130 l97 -99
-97 -99 c-85 -86 -97 -102 -97 -133 0 -52 37 -88 91 -88 41 0 47 4 181 138
183 183 182 165 11 349 -72 76 -142 142 -160 150 -38 15 -30 15 -70 -2z"/>
<path d="M7237 7206 c-58 -16 -142 -73 -180 -121 -38 -48 -81 -137 -102 -210
-26 -92 -32 -377 -11 -486 18 -91 68 -207 113 -264 93 -117 274 -165 437 -115
129 40 231 170 273 347 25 106 25 396 0 495 -41 165 -125 282 -240 334 -50 23
-79 28 -152 31 -54 2 -109 -3 -138 -11z"/>
<path d="M14800 6945 l0 -257 203 4 203 3 59 30 c80 41 116 97 123 193 8 120
-39 210 -134 258 -34 16 -66 19 -246 22 l-208 3 0 -256z"/>
<path d="M16572 6783 c-61 -174 -110 -318 -108 -320 2 -2 104 -2 228 -1 l224
3 -110 317 c-61 175 -114 318 -117 318 -3 0 -56 -143 -117 -317z"/>
</g>
</svg>
